<svg width="327" height="331" viewBox="0 0 327 331" fill="none" xmlns="http://www.w3.org/2000/svg">
<path d="M327 42.236V317.707C327 325.05 320.473 331 312.422 331H14.5782C6.52697 331 0 325.05 0 317.707V42.236C0 34.8929 6.52697 28.9429 14.5782 28.9429H215.651C215.625 28.7215 215.625 28.5132 215.625 28.2919C215.625 22.0815 219.572 16.483 225.878 12.5641C225.76 12.3167 225.734 12.0303 225.812 11.7438L227.154 6.43179L228.496 1.11975C228.77 0.0391167 230.229 -0.364494 231.115 0.390649L235.479 4.11429L239.505 7.52545C242.136 7.05674 244.898 6.80936 247.764 6.80936C250.631 6.80936 253.536 7.06976 256.219 7.56451C256.324 7.39525 256.454 7.23901 256.623 7.0958L260.141 4.11429L263.645 1.11975C264.922 0.0391167 267.007 0.625004 267.384 2.16133L268.466 6.43179L269.547 10.6892C269.69 11.2881 269.547 11.848 269.221 12.2907C275.774 16.2356 279.904 21.9383 279.904 28.2919C279.904 28.5132 279.904 28.7215 279.878 28.9429H312.448C320.499 28.9429 327.026 34.8929 327.026 42.236H327Z" fill="#D3F5FA"/>
</svg>
