<svg width="141" height="73" viewBox="0 0 141 73" fill="none" xmlns="http://www.w3.org/2000/svg">
<path fill-rule="evenodd" clip-rule="evenodd" d="M141 24.4809V73H0V24.4809H62.0171C61.9951 24.2937 61.9951 24.1175 61.9951 23.9302C61.9951 18.6767 65.3269 13.9409 70.6489 10.6258C70.55 10.4165 70.528 10.1742 70.5939 9.9319L71.7265 5.43833L72.8591 0.944764C73.09 0.0306314 74.3216 -0.310792 75.0693 0.328L78.753 3.4779L82.1508 6.36348C84.3719 5.96699 86.7031 5.75773 89.1222 5.75773C91.5414 5.75773 93.9935 5.978 96.2587 6.39652C96.3466 6.25334 96.4566 6.12118 96.5995 6.00003L99.5685 3.4779L102.526 0.944764C103.604 0.0306314 105.363 0.526246 105.682 1.82586L106.595 5.43833L107.508 9.0398C107.629 9.54642 107.508 10.02 107.233 10.3945C112.764 13.7316 116.249 18.5556 116.249 23.9302C116.249 24.1175 116.249 24.2937 116.227 24.4809H141Z" fill="#E4D6C1"/>
</svg>
