<svg width="278" height="282" viewBox="0 0 278 282" fill="none" xmlns="http://www.w3.org/2000/svg">
<path d="M277.978 35.9813V270.675C277.978 276.931 272.429 282 265.585 282H12.3927C5.54848 282 0 276.931 0 270.675V35.9813C0 29.7252 5.54848 24.656 12.3927 24.656H183.321C183.299 24.4674 183.299 24.2899 183.299 24.1014C183.299 18.8103 186.655 14.0406 192.015 10.7017C191.915 10.491 191.893 10.2469 191.96 10.0029L193.1 5.47721L194.241 0.951501C194.474 0.0308303 195.714 -0.313035 196.467 0.330326L200.177 3.50276L203.599 6.40897C205.837 6.00964 208.184 5.79889 210.621 5.79889C213.057 5.79889 215.527 6.02073 217.808 6.44225C217.897 6.29804 218.008 6.16494 218.152 6.04292L221.142 3.50276L224.121 0.951501C225.206 0.0308303 226.978 0.529989 227.299 1.83889L228.219 5.47721L229.138 9.10443C229.26 9.61468 229.138 10.0917 228.861 10.4688C234.432 13.8298 237.942 18.6883 237.942 24.1014C237.942 24.2899 237.942 24.4674 237.92 24.656H265.607C272.452 24.656 278 29.7252 278 35.9813H277.978Z" fill="#E4D6C1"/>
</svg>
