<svg width="270" height="262" viewBox="0 0 270 262" fill="none" xmlns="http://www.w3.org/2000/svg">
<rect width="270" height="261.743" rx="38" fill="#E5FFD9"/>
<path d="M192.855 122.671C198.215 116.783 198.852 108.646 194.278 104.496C189.703 100.346 181.65 101.755 176.29 107.642C170.93 113.53 170.293 121.667 174.868 125.817C179.442 129.967 187.495 128.558 192.855 122.671Z" fill="#D5FFD1"/>
<path d="M170.593 94.228C173.876 85.8064 171.869 77.1688 166.11 74.9354C160.352 72.7021 153.023 77.7187 149.74 86.1404C146.457 94.562 148.463 103.2 154.222 105.433C159.98 107.666 167.31 102.65 170.593 94.228Z" fill="#D5FFD1"/>
<path d="M109.587 97.0765C106.543 89.6516 99.4456 85.5396 93.7349 87.8922C88.0242 90.2448 85.8624 98.171 88.9063 105.596C91.9502 113.021 99.0472 117.133 104.758 114.78C110.469 112.428 112.63 104.501 109.587 97.0765Z" fill="#D5FFD1"/>
<path d="M138.598 84.1929C137.88 75.5437 132.309 68.955 126.154 69.4766C120 69.9983 115.593 77.4327 116.311 86.0819C117.03 94.7311 122.601 101.32 128.755 100.798C134.909 100.276 139.316 92.8421 138.598 84.1929Z" fill="#D5FFD1"/>
<path d="M172.483 154.958C178.587 173.689 162.097 191.977 142.802 187.878L108.498 180.591C89.2011 176.492 81.5721 153.079 94.7632 138.448L106.489 125.442L111.094 120.333C127.45 102.194 157.355 108.547 164.924 131.768L167.055 138.309L172.481 154.958L172.483 154.958Z" fill="#D5FFD1"/>
</svg>
