<svg width="100%" height="310" viewBox="0 0 289 310" fill="none" xmlns="http://www.w3.org/2000/svg">
<g clip-path="url(#clip0_320_275)">
<path d="M289 96.4604V235.382C289 276.605 255.486 310.012 214.158 310.012H74.8423C33.5141 310 0 276.593 0 235.369V96.4604C0 55.2368 33.5141 21.8175 74.8423 21.8175H88.6722L93.9436 4.30395C95.3824 -0.470226 101.683 -1.55864 104.635 2.46107L118.341 21.0754C118.515 21.3104 118.651 21.5578 118.775 21.8175H161.145C161.269 21.5578 161.406 21.3104 161.592 21.0754L175.285 2.46107C178.25 -1.55864 184.551 -0.482594 185.989 4.30395L191.261 21.8175H214.17C255.511 21.8175 289.012 55.2368 289.012 96.4481L289 96.4604Z" fill="#FFD9EB"/>
</g>
<defs>
<clipPath id="clip0_320_275">
<rect width="289" height="310" fill="white"/>
</clipPath>
</defs>
</svg>
