<svg width="276" height="280" viewBox="0 0 276 280" fill="none" xmlns="http://www.w3.org/2000/svg">
<g clip-path="url(#clip0_320_279)">
<path d="M276 35.7283V268.755C276 274.967 270.491 280 263.695 280H12.3045C5.509 280 0 274.967 0 268.755V35.7283C0 29.5166 5.509 24.4834 12.3045 24.4834H182.017C181.995 24.2961 181.995 24.1199 181.995 23.9327C181.995 18.6792 185.327 13.9433 190.649 10.6282C190.55 10.4189 190.528 10.1766 190.594 9.93432L191.727 5.44075L192.859 0.947186C193.09 0.0330528 194.322 -0.30837 195.069 0.330421L198.753 3.48032L202.151 6.3659C204.372 5.96941 206.703 5.76015 209.122 5.76015C211.541 5.76015 213.993 5.98042 216.259 6.39894C216.347 6.25576 216.457 6.1236 216.6 6.00245L219.568 3.48032L222.526 0.947186C223.604 0.0330528 225.363 0.528667 225.682 1.82828L226.595 5.44075L227.508 9.04222C227.629 9.54885 227.508 10.0224 227.233 10.3969C232.764 13.734 236.249 18.558 236.249 23.9327C236.249 24.1199 236.249 24.2961 236.227 24.4834H263.717C270.513 24.4834 276.022 29.5166 276.022 35.7283H276Z" fill="#FFE8AA"/>
</g>
<defs>
<clipPath id="clip0_320_279">
<rect width="276" height="280" fill="white"/>
</clipPath>
</defs>
</svg>
