<svg width="30" height="31" viewBox="0 0 30 31" fill="none" xmlns="http://www.w3.org/2000/svg">
<circle cx="15" cy="16" r="15" fill="#FFFAEA"/>
<path d="M18.2282 17.416C18.4042 17.64 18.6442 17.928 18.9482 18.28C19.2682 18.616 19.5642 18.976 19.8362 19.36C20.1242 19.728 20.3562 20.096 20.5322 20.464C20.7082 20.832 20.7562 21.152 20.6762 21.424C20.5482 21.84 20.3082 22.08 19.9562 22.144C19.6042 22.208 19.2362 22.144 18.8522 21.952C18.5802 21.824 18.2682 21.6 17.9162 21.28C17.5642 20.96 17.2202 20.624 16.8842 20.272C16.5642 19.92 16.2762 19.592 16.0202 19.288C15.7642 18.968 15.5882 18.744 15.4922 18.616C15.4922 18.6 15.4842 18.592 15.4682 18.592C15.4682 18.592 15.4682 18.584 15.4682 18.568C15.3562 18.696 15.2442 18.84 15.1322 19C15.0202 19.144 14.9002 19.288 14.7722 19.432C14.6122 19.624 14.4282 19.856 14.2202 20.128C14.0282 20.384 13.8122 20.64 13.5722 20.896C13.3482 21.152 13.1082 21.392 12.8522 21.616C12.6122 21.824 12.3722 21.976 12.1322 22.072C11.8122 22.2 11.5002 22.176 11.1962 22C10.9082 21.84 10.7242 21.616 10.6442 21.328C10.5482 20.992 10.5722 20.64 10.7162 20.272C10.8602 19.904 11.0522 19.552 11.2922 19.216C11.5322 18.864 11.7882 18.528 12.0602 18.208C12.3482 17.888 12.5802 17.608 12.7562 17.368C12.9322 17.144 13.0842 16.952 13.2122 16.792C13.3562 16.616 13.4922 16.448 13.6202 16.288C13.3962 16.048 13.1562 15.784 12.9002 15.496C12.6442 15.192 12.2842 14.8 11.8202 14.32C11.6602 14.144 11.4842 13.952 11.2922 13.744C11.1002 13.52 10.9242 13.288 10.7642 13.048C10.6042 12.808 10.4762 12.56 10.3802 12.304C10.2842 12.048 10.2602 11.784 10.3082 11.512C10.3562 11.272 10.4602 11.08 10.6202 10.936C10.7802 10.776 10.9722 10.672 11.1962 10.624C11.4202 10.56 11.6522 10.552 11.8922 10.6C12.1322 10.648 12.3562 10.744 12.5642 10.888C12.9802 11.192 13.3722 11.568 13.7402 12.016C14.1082 12.464 14.4682 12.888 14.8202 13.288C14.9322 13.432 15.0362 13.568 15.1322 13.696C15.2442 13.808 15.3482 13.92 15.4442 14.032C15.5242 13.904 15.6202 13.776 15.7322 13.648C15.8602 13.52 15.9882 13.368 16.1162 13.192C16.4362 12.808 16.7562 12.408 17.0762 11.992C17.4122 11.576 17.7802 11.216 18.1802 10.912C18.3882 10.752 18.6042 10.656 18.8282 10.624C19.0682 10.576 19.2922 10.584 19.5002 10.648C19.7082 10.696 19.8922 10.792 20.0522 10.936C20.2122 11.08 20.3162 11.256 20.3642 11.464C20.4282 11.72 20.4202 11.976 20.3402 12.232C20.2762 12.488 20.1642 12.736 20.0042 12.976C19.8602 13.216 19.6922 13.448 19.5002 13.672C19.3242 13.88 19.1562 14.072 18.9962 14.248C18.6282 14.648 18.3082 15.008 18.0362 15.328C17.7642 15.648 17.5082 15.952 17.2682 16.24C17.4122 16.4 17.5562 16.576 17.7002 16.768C17.8602 16.944 18.0362 17.16 18.2282 17.416Z" fill="#C9C9C9"/>
</svg>
