<svg width="141" height="73" viewBox="0 0 141 73" fill="none" xmlns="http://www.w3.org/2000/svg">
<path fill-rule="evenodd" clip-rule="evenodd" d="M141 24.4809V73H0V24.4809H62.0171C61.9951 24.2937 61.9951 24.1175 61.9951 23.9302C61.9951 18.6767 65.3269 13.9408 70.6489 10.6257C70.55 10.4165 70.528 10.1742 70.5939 9.93188L71.7265 5.43831L72.8591 0.944744C73.09 0.0306114 74.3216 -0.310812 75.0693 0.32798L78.753 3.47788L82.1508 6.36346C84.3719 5.96697 86.7031 5.75771 89.1222 5.75771C91.5414 5.75771 93.9935 5.97798 96.2587 6.3965C96.3466 6.25332 96.4566 6.12116 96.5995 6.00001L99.5685 3.47788L102.526 0.944744C103.604 0.0306114 105.363 0.526226 105.682 1.82584L106.595 5.43831L107.508 9.03978C107.629 9.5464 107.508 10.02 107.233 10.3945C112.764 13.7316 116.249 18.5556 116.249 23.9302C116.249 24.1175 116.249 24.2937 116.227 24.4809H141Z" fill="#D3F5FA"/>
</svg>
