<svg width="20" height="19" viewBox="0 0 20 19" fill="none" xmlns="http://www.w3.org/2000/svg">
<path d="M20 10.7992C20 15.327 15.5244 19 10 19C4.47556 19 0 15.327 0 10.7992C0 8.42837 1.22666 6.29118 3.19111 4.79515C3.15555 4.70072 3.14667 4.59137 3.16889 4.48203L3.58667 2.45419L4.00444 0.426341C4.08889 0.0138142 4.54222 -0.140262 4.81778 0.14801L6.17778 1.56949L7.43111 2.87168C8.24889 2.69276 9.11111 2.59832 10 2.59832C10.8889 2.59832 11.7956 2.69773 12.6311 2.88659C12.6622 2.82198 12.7022 2.76234 12.7556 2.70767L13.8489 1.56949L14.9378 0.426341C15.3333 0.0138142 15.9822 0.237473 16.1022 0.823958L16.44 2.45419L16.7778 4.07944C16.8222 4.30807 16.7778 4.52179 16.6756 4.69078C18.7156 6.19675 20 8.3737 20 10.7992Z" fill="#FFB3B5"/>
</svg>
