<svg width="141" height="73" viewBox="0 0 141 73" fill="none" xmlns="http://www.w3.org/2000/svg">
<path fill-rule="evenodd" clip-rule="evenodd" d="M141 73H0V24.481H62.0171C61.9951 24.2935 61.9951 24.1177 61.9951 23.9302C61.9951 18.6768 65.3269 13.9409 70.6489 10.626C70.55 10.4165 70.5281 10.1743 70.594 9.93166L71.7266 5.4385L72.8591 0.944844C73.0901 0.0307817 74.3215 -0.311015 75.0693 0.328145L78.7529 3.47805L82.1509 6.3633C84.3721 5.96682 86.7031 5.75783 89.1223 5.75783C91.5413 5.75783 93.9934 5.97805 96.2585 6.3965C96.3467 6.25344 96.4565 6.12111 96.5996 6.00002L99.5684 3.47805L102.526 0.944844C103.604 0.0307817 105.363 0.526387 105.682 1.8257L106.595 5.4385L107.508 9.03957C107.628 9.54641 107.508 10.02 107.233 10.3946C112.764 13.7315 116.25 18.5557 116.25 23.9302C116.25 24.1177 116.25 24.2935 116.228 24.481H141V73Z" fill="#FFE8AA"/>
</svg>
