<svg width="45" height="39" viewBox="0 0 45 39" fill="none" xmlns="http://www.w3.org/2000/svg">
<path d="M45 21.7278C45 30.8378 34.93 38.2278 22.5 38.2278C10.07 38.2278 0 30.8378 0 21.7278C0 16.9578 2.76 12.6578 7.18 9.64779C7.1 9.45779 7.08 9.23779 7.13 9.01779L8.07001 4.93779L9.00999 0.857794C9.19999 0.0277941 10.22 -0.282206 10.84 0.297794L13.9 3.15779L16.72 5.77779C18.56 5.41779 20.5 5.22779 22.5 5.22779C24.5 5.22779 26.54 5.42779 28.42 5.80779C28.49 5.67779 28.58 5.55779 28.7 5.44779L31.16 3.15779L33.61 0.857794C34.5 0.0277941 35.96 0.477794 36.23 1.65779L36.99 4.93779L37.75 8.20779C37.85 8.66779 37.75 9.09779 37.52 9.43779C42.11 12.4678 45 16.8478 45 21.7278Z" fill="#FFE8AA"/>
</svg>
